<svg width="512" height="512" viewBox="0 0 512 512" fill="none" xmlns="http://www.w3.org/2000/svg">
<path d="M320 458.16C320 458.16 304 464 256 464C208 464 182 448 160 432H96C79.0261 432 62.7475 425.257 50.7452 413.255C38.7428 401.252 32 384.974 32 368V320C32 303.026 38.7428 286.748 50.7452 274.745C62.7475 262.743 79.0261 256 96 256H126C131.495 255.97 136.891 254.54 141.68 251.845C146.469 249.151 150.492 245.281 153.37 240.6C153.37 240.6 162 221.81 188 176.78C214 131.75 264 64 272 48C301 48 315 70 306 95.71C295.72 125.1 282.29 150.09 278.54 182.8C278 187.58 281.68 194.8 286.49 194.8L416 205" fill="#FFC225"/>
<path d="M320 458.16C320 458.16 304 464 256 464C208 464 182 448 160 432H96C79.0261 432 62.7475 425.257 50.7452 413.255C38.7428 401.252 32 384.974 32 368V320C32 303.026 38.7428 286.748 50.7452 274.745C62.7475 262.743 79.0261 256 96 256H126C131.495 255.97 136.891 254.54 141.68 251.845C146.469 249.151 150.492 245.281 153.37 240.6C153.37 240.6 162 221.81 188 176.78C214 131.75 264 64 272 48C301 48 315 70 306 95.71C295.72 125.1 282.29 150.09 278.54 182.8C278 187.58 281.68 194.8 286.49 194.8L416 205" stroke="#DD9E25" stroke-width="32" stroke-linecap="round" stroke-linejoin="round"/>
<path d="M416 271L336 269C316 267.16 304 256.6 304 239C304 221.4 318 210.16 336 209L416 205C433.6 205 448 221.4 448 239V239.17C447.955 247.627 444.564 255.723 438.568 261.688C432.571 267.652 424.458 271 416 271ZM448 336L336 334C318 333.16 304 321.59 304 304C304 286.39 318 275.14 336 274L448 272C456.479 272.026 464.603 275.406 470.598 281.402C476.594 287.397 479.974 295.521 480 304C479.974 312.479 476.594 320.603 470.598 326.598C464.603 332.594 456.479 335.974 448 336ZM400 464L336 461C315 459.16 304 449.6 304 432C304 414.4 318.4 402 336 402L400 400C408.48 400.024 416.605 403.403 422.601 409.399C428.597 415.395 431.976 423.52 432 432C431.976 440.48 428.597 448.605 422.601 454.601C416.605 460.597 408.48 463.976 400 464ZM432 400L336 398C317 397.16 304 385.6 304 368C304 350.4 317 339.16 336 338L432 336C440.48 336.024 448.605 339.403 454.601 345.399C460.597 351.395 463.976 359.52 464 368C463.976 376.48 460.597 384.605 454.601 390.601C448.605 396.597 440.48 399.976 432 400Z" fill="#FFC225" stroke="#DD9E25" stroke-width="32" stroke-miterlimit="10"/>
</svg>
